/* XPM */
static char *bitcoin__[] = {
/* columns rows colors chars-per-pixel */
"64 64 81 1",
"  c #363E3E",
". c #374040",
"X c #3B4444",
"o c #3E4748",
"O c #3F4848",
"+ c #404747",
"@ c #434C4C",
"# c #494E4E",
"$ c #475151",
"% c #4B5454",
"& c #4C5758",
"* c #4E5959",
"= c #515656",
"- c #525C5C",
"; c #595E5E",
": c #535F60",
"> c #566262",
", c #5A6565",
"< c #5A6768",
"1 c #5D6A6A",
"2 c #606464",
"3 c #616D6E",
"4 c #626F70",
"5 c #657373",
"6 c #697676",
"7 c #697778",
"8 c #6C7B7B",
"9 c #707373",
"0 c #727B7B",
"q c #6A817F",
"w c #717F80",
"e c #748384",
"r c #7A8585",
"t c #778788",
"y c #778888",
"u c #7B8B8C",
"i c #7E8F90",
"p c #7E9091",
"a c #828787",
"s c #838A8A",
"d c #839495",
"f c #8A9595",
"g c #859798",
"h c #86999A",
"j c #8A9C9C",
"k c #919E9E",
"l c #87A09F",
"z c #8C9FA0",
"x c #8EA1A2",
"c c #92A5A5",
"v c #93A7A8",
"b c #99A7A8",
"n c #95AAAB",
"m c #99ADAE",
"M c #9AAFB0",
"N c #9CB2B3",
"B c #9FB9B9",
"V c #A0B6B7",
"C c #A1B7B8",
"Z c #A4BBBB",
"A c #A7BFC0",
"S c #A8BFC0",
"D c #A7C2C2",
"F c #ABC3C4",
"G c #AFC7C8",
"H c #AFC8C9",
"J c #B3CBCC",
"K c #B6CFD0",
"L c #B7D0D1",
"P c #BAD4D5",
"I c #BDD7D8",
"U c #BED9DA",
"Y c #C5D7D8",
"T c #C1DCDD",
"R c #C4DFE0",
"E c #C5E1E2",
"W c #C8E4E5",
"Q c #CBE7E8",
"! c #CDEAEB",
"~ c #D0EDEE",
"^ c None",
/* pixels */
"^^^^^^^^^^^^^^^^^^^^^^^^^^^1,21,22223^^^^^^^^^^^^^^^^^^^^^^^^^^^",
"^^^^^^^^^^^^^^^^^^^^^^^@@@@%%-*&%*%%%$%%%^^^^^^^^^^^^^^^^^^^^^^^",
"^^^^^^^^^^^^^^^^^^^^5++#%--:>,-->,-:>-**$##3^^^^^^^^^^^^^^^^^^^^",
"^^^^^^^^^^^^^^^^^^-+@%=-%=&&%&%%$*$%&%--;-%%#&^^^^^^^^^^^^^^^^^^",
"^^^^^^^^^^^^^^^^:@o=*&$O+%>eudju71>@%%$@$&%-%#@@^^^^^^^^^^^^^^^^",
"^^^^^^^^^^^^^^0+@%%@@@@O1mGHGFFFFSNv7-@@##@#%;%@#6^^^^^^^^^^^^^^",
"^^^^^^^^^^^^^-##%@@O@@<vHHGGGFDZBCNMBCh5%+@@@@%-=@=^^^^^^^^^^^^^",
"^^^^^^^^^^^^@+%OOo@O@iFSGJPRRTIDMxxxxxmvd-@@@@O#%-#@^^^^^^^^^^^^",
"^^^^^^^^^^^+%%+XoOO&zSFKTRRRRIPFNguippiype>O++@@##;=#a^^^^^^^^^^",
"^^^^^^^^^^#-&+XXXO&zAKIIRIIRKKKSMjeweyyw555:XO++@+#==#a^^^^^^^^^",
"^^^^^^^^^@%=OXXXX<nAKURRTIIIKHHGnpu754w54<:>+OO@+++#;##a^^^^^^^^",
"^^^^^^^^&-%+XXXX1ASKRTRRRTPKHHSZxie84:>54>:$@X@@+@###==#^^^^^^^^",
"^^^^^^^%-*@OOXX6SHKRTTRRIRIPKGBMhie74::>5<&OOoOO@++###==#^^^^^^^",
"^^^^^^,=&#OOX+>MKKIIRRRITIPIPSAngiw5<>>>55>&OoOO@#++@##;#=^^^^^^",
"^^^^^s%-%+OOOO1DKKRRIRRTITKPIGZNxie54>*>58<:*OoO@++@@###;=9^^^^^",
"^^^^^#--#@@++O3GKKIIIRRRIIPKKFSZniew4:$*4e1::%oo++#@####;=#^^^^^",
"^^^^3%-=@@OOOO7HJJUIUUUETTLKLJDBxpye5<O&>e1>>OoO#+@@+$%#%%==^^^^",
"^^^^#=&#@OOOO@7GJJUPIUUUTILFJFBxppu4<4*O*83<*oO$++@@#@###==@^^^^",
"^^^2&-##@OOOOO5FJJUUUUUUKJDMZBBMe:<&O:O%&43<$XOO++@@@#####;=#^^^",
"^^^%=-$@$OOOOo>DJHPUJHDZxmmnzJh>OoO:*O&O$>31$OOO@+#@#+##%#;=#^^^",
"^^a%;%##@OOOoooMJJIUB1<-&>euzz4OoO:&>-&OO*>>OOOO+@@@@##%###;=#^^",
"^^&==%$$$$OOXoOnJJPIMd11&&&pZp%oo1::O>*-%$:&XXOO+@@@@####=#=#@^^",
"^^%=%%%$$OOoooopFHJUFJNe&O%pIx$o5pe54>41*OO%XoOO@@@@#######=;=^^",
"^-&;%%%$$$OoXXo<BHFUUh>y4:7MTv:&epppuyq<&OOOXoOO++@@@#%##=#####^",
"^=--%%$$$@OOXXXOJISUJiZMe5MKRM>%4pMDxpp4&OOOOOOOOO@@@##%#=##;=#^",
"^---%%%%$#OOXX.o6uFPUUINdNIPRB>$:yMHnpiq>OOOOoOOO@@@@#%##==#;#@^",
"^;;-%%%$$$@OXX..7>FPRRIJHRUIRA7%OenBnpi8>&$OOOOO@@@@#$%%==%#==@^",
"^-==%%%%$$OOXXX.*yHJTRUUERKPRFw@O1vBNie7>-$OOOOOO@@@@$%&=%%#=;#2",
"a>;&%%%$$$OOoXX.XuHGUURRRIjURFe$OOennie5<:&O$oOO$O$@@$%&&==#=##;",
"a-%&&%$#%$$OoXX..&LLUEEERBwKAj4$OO*phy74>*&&$oO$@$$$$#%%==%%###2",
"s-&-=%%%$$@OoXX...hKUURUGeiNgw:@OO&epy7<>**%ooOO$O@$$%%*-&%%=##;",
"a-==*&%%%$$OooX...@GKPIKz1ZRRBy4:::4uy74<:*$XoOO@$$$#%&==&==###2",
"u&%:*&O:O&&OooX....NKKKBwwIRTKPne4147yy7<>:OOOoOO&O&O*****&&%%#2",
"r&%**&:O:&O&ooXX.. 7JKJn8ARRPHBe<::45iiq<>:oXoooOO&O&&*:--**%%#2",
"r&%&&&*&&OOOOoX..  .1PKBpPHz7e1,&OOO<xpe<>:....XO&&OO*O:-**&=%#2",
"r%%&&&O:&&OOOoX.....XFPGxcdBHKZze>44enp74<O .   XOOO&O:>:-**=%#2",
"^%%=&O*OO&OOOOOX.. ..yIPJKTUKnhe4557exu7<<4     .. .oOO>---*&%#2",
"^&&*&:&&:O&&OOOo.....@KTPKTIKBzduyt7ypy5<u:.     ...XooO&-&==%%^",
"^%*-&OO&:OO&OOX......XeIKHTIPKSDBNpueq744y        ..XX.XXo$%&%#^",
"^%&&&&:&&&:OOOoX..X..XoMFGTTTRRUJNpe1<<4uO     . ..Xoooo++++##$^",
"^%%*%%%%:&OO&OoXo..XXXX-AZLRUIKSBpy7:*:44.  .  ...XXoooO@+#+@+o^",
"^^*&%&&%O&:&&OooX.X..o@%BMzHLHMgiee<:::1X.  .. ...ooo$O$$$#$$#^^",
"^^*%&&%$&::*&OOOX.Xoo$*:EQBpzhe544>:<:O:    ...X.XoOO%$%%$%$$%^^",
"^^%%%$%&&::*&OOOXXo@&%&wWQ!Dhviw44::<OuO    ...XXXoO$&$&%$$$#%^^",
"^^^&$&&&>>>&*OOoOO&:**>zW!!!ZMMpe4::O<n. .....OOooO$%***%%*%%^^^",
"^^^%&&&:>>>:&OOO&>:::>:nW!!~WJFz7*OOOB<.....XXOOOoO&*>*>-&*%%^^^",
"^^^^%&*>>>::%OO*<>**<>:iT!!~!ETv*OOop4.XX...oOoOOO$*>>>>>&%$^^^^",
"^^^^&&*>>>:&%&1<1:*11<1O<pL!!WWM<O*&<OOOO..XOOOO*$&>1111>--#^^^^",
"^^^^^*>28>>-<551>*>441<&OO*7mRWIDxeOoOo:$ XoO$@&:&&135134--^^^^^",
"^^^^^^183<<8775<*>4441>< O4e57y7>O.O>1o5$ .O$$%&O$>478ee6@#^^^^^",
"^^^^^^<<00eue76-<87574>5X*::<&&5&$1O:1Oy$ .$&*%O&<47eerr2+^^^^^^",
"^^^^^^^<>fdde71*587771:e:OOO> O*O:OO7O>pO .$&>*%:>4eudfu>^^^^^^^",
"^^^^^^^^#djfe5>&>88ew1@OXX.OX $4:%:&7OyxO..O**>1*<8ehjr3^^^^^^^^",
"^^^^^^^^^ecfe1>-:4yye1.-O&oXOo%<14y&e5hxO..$->155<ehbj7^^^^^^^^^",
"^^^^^^^^^^jju<<&%<e87%X5><&ODBHLJIwO84hiO..O%->34<yhcu^^^^^^^^^^",
"^^^^^^^^^^^re81&<7544$8vxBNxFNDDBD<4hxMpp>.O->1787jdd^^^^^^^^^^^",
"^^^^^^^^^^^^728e07mGc5jjBHLQhBZnDDvB!JDnhg<uh6770edd^^^^^^^^^^^^",
"^^^^^^^^^^^^^rrre0zcx++--1pLBMnjeHBDKxp<-#Ohpe80<0f^^^^^^^^^^^^^",
"^^^^^^^^^^^^^^^70uku1-3-><5vvvcjye755ppp@&-=>3r<5k^^^^^^^^^^^^^^",
"^^^^^^^^^^^^^^^^fefu,-76>17GGDJC417ewppx&X=,-1--^^^^^^^^^^^^^^^^",
"^^^^^^^^^^^^^^^^^^b8--s0<50JFSG02,8eezzx6;%##5^^^^^^^^^^^^^^^^^^",
"^^^^^^^^^^^^^^^^^^^^s#q5qruIKYb48wdfpvmm3  9^^^^^^^^^^^^^^^^^^^^",
"^^^^^^^^^^^^^^^^^^^^^^^3>8uJJZ0=30rrjxjx5^^^^^^^^^^^^^^^^^^^^^^^",
"^^^^^^^^^^^^^^^^^^^^^^^^^^^^Ykd0rfcc^^^^^^^^^^^^^^^^^^^^^^^^^^^^"
};
