/* XPM */
static char *bitcoin__[] = {
/* columns rows colors chars-per-pixel */
"32 32 63 1",
"  c #363E3E",
". c #374040",
"X c #3C4444",
"o c #3F4848",
"O c #434B4B",
"+ c #494F4F",
"@ c #475151",
"# c #4B5454",
"$ c #4C5758",
"% c #4E5959",
"& c #515656",
"* c #525C5C",
"= c #595E5E",
"- c #566262",
"; c #596565",
": c #5A6768",
"> c #5D6A6A",
", c #626D6E",
"< c #696E6E",
"1 c #616F70",
"2 c #647373",
"3 c #6A7575",
"4 c #6C7A7B",
"5 c #727B7C",
"6 c #6F7F80",
"7 c #757F80",
"8 c #728282",
"9 c #7A8586",
"0 c #778788",
"q c #778888",
"w c #7A8B8B",
"e c #7E9091",
"r c #839495",
"t c #8B9494",
"y c #859798",
"u c #869999",
"i c #8A9D9D",
"p c #8C9FA0",
"a c #919FA0",
"s c #8DA0A1",
"d c #92A4A5",
"f c #95ABAC",
"g c #99ACAC",
"h c #9AAFB0",
"j c #9CB2B3",
"k c #9EB8B8",
"l c #A0B6B7",
"z c #A2B7B8",
"x c #A4BBBC",
"c c #A9BFC0",
"v c #ACC4C5",
"b c #AEC7C8",
"n c #B2CBCC",
"m c #B6CFD0",
"M c #B7D0D1",
"N c #BAD4D5",
"B c #BDD7D8",
"V c #BED9DA",
"C c #C1DCDD",
"Z c #C4DFE0",
"A c #C9E5E6",
"S c #CEEBEC",
"D c None",
/* pixels */
"DDDDDDDDDDDD&*-*--*-DDDDDDDDDDDD",
"DDDDDDDDDt##%&*%&&&%%&tDDDDDDDDD",
"DDDDDDDD@@#O>pffy8-O@#&ODDDDDDDD",
"DDDDDD2O@O%snMMvjfhu-OO@#<DDDDDD",
"DDDDD;+Xo:xMCVNbsqw08%oO+&=DDDDD",
"DDDD,+OX2xBZCNnvu812>%ooOO&=DDDD",
"DDD5#OX,nBZCCBnkr4--2%ooOOO&<DDD",
"DDD&OXOyMVCZVMnxu8:%4-$XOO+#&DDD",
"DD&&OoosnBBCVmnje8>#2:#oOOO++&DD",
"DD&@OoornBMnxhky*$$o->ooXOO++&+D",
"D;%@OoX4nBu:%8s$#%$$@%ooOOO++&+D",
"D&#@@oX-vnvq%8v#8w41#OXoOOO+++&D",
"D&##OOXXfnvxenn%4ks8$oooOO+@&+&&",
"3*##@OX 2nVNBNM--hs8%OooOOO#&+=&",
"3&#@@OXX$nCANjv-oqe4*#OoO@@#&++&",
"3&&@@OXX iBBrzf:@:w1-%XOO@@#&&&&",
"1$$$$ooX.>mxeCMh1:88:$Xooo@$%%$*",
",$$$$oo...enfhsw:*wq1o..o$$**%#*",
",$$o$ooo..$NmVve84e81o....oo*&#*",
"D%#$$$o..X.rnCBnkw212  ....ooO#&",
"D%##$$oo.XX@kbMke4-:o....XooO@OD",
"D###**@oXX@-Axp81-$-....Xo@##@@D",
"DD$$-*@o#**8ASvf1$1-...oo@**%%5D",
"DD$*-*@*:%:>hAAb$o>o..oo@$;;*#DD",
"DDD,>:2>*>1-X2ih8##$oX@#@-23-DDD",
"DDD:5e4:2421@#$%$#-2Xo%@-49r#DDD",
"DDDD9i4->82@o.X---1yXX*>-qi9DDDD",
"DDDDDd4-:4-2q8xbb:qu-X*>2raDDDDD",
"DDDDDDt85g83enffjkbu42w44gDDDDDD",
"DDDDDDDD9r;,-rzj440e@&;>DDDDDDDD",
"DDDDDDDDDD;54fmt2wyf=&DDDDDDDDDD",
"DDDDDDDDDDDDDzx45tfDDDDDDDDDDDDD"
};
