/* XPM */
static char *bitcoin___[] = {
/* columns rows colors chars-per-pixel */
"128 128 92 1",
"  c #363D3D",
". c #383F3F",
"X c #374040",
"o c #3B4444",
"O c #3F4848",
"+ c #404747",
"@ c #434C4C",
"# c #494E4E",
"$ c #475151",
"% c #4A5454",
"& c #4C5857",
"* c #4E5959",
"= c #515656",
"- c #525C5C",
"; c #595E5E",
": c #535F60",
"> c #566262",
", c #5A6464",
"< c #5B6768",
"1 c #5D6A6A",
"2 c #606565",
"3 c #616D6D",
"4 c #696E6E",
"5 c #61706F",
"6 c #616F70",
"7 c #657373",
"8 c #697676",
"9 c #697778",
"0 c #657C7A",
"q c #6C7B7B",
"w c #717777",
"e c #747C7C",
"r c #787F7F",
"t c #6F7F80",
"y c #707F80",
"u c #6F8483",
"i c #738383",
"p c #7A8585",
"a c #778788",
"s c #778889",
"d c #7B8B8C",
"f c #78908F",
"g c #7E8F90",
"h c #7E9191",
"j c #828C8D",
"k c #838F90",
"l c #829495",
"z c #899494",
"x c #809897",
"c c #859798",
"v c #889798",
"b c #86999A",
"n c #8A9C9D",
"m c #919F9F",
"M c #8C9FA0",
"N c #919FA0",
"B c #8EA1A2",
"V c #92A4A5",
"C c #99A6A6",
"Z c #93A7A8",
"A c #99A7A8",
"S c #95AAAB",
"D c #99ACAD",
"F c #9AAFB0",
"G c #9DB3B4",
"H c #A1AEAF",
"J c #A0B5B6",
"K c #A1B7B8",
"L c #A4BBBC",
"P c #A8BEBF",
"I c #A7BFC0",
"U c #A8BFC0",
"Y c #ACC3C4",
"T c #AFC7C8",
"R c #AFC8C9",
"E c #B1C5C5",
"W c #B2CBCC",
"Q c #BACDCD",
"! c #B6CFD0",
"~ c #B7D0D1",
"^ c #BAD4D5",
"/ c #BDD7D8",
"( c #BED9DA",
") c #C0D4D4",
"_ c #C1DCDD",
"` c #C4DFE0",
"' c #C5E1E2",
"] c #C9E5E6",
"[ c #CBE7E8",
"{ c #CDEAEB",
"} c #D0EDEE",
"| c None",
/* pixels */
"||||||||||||||||||||||||||||||||||||||||||||||||||||||||||ereryrryrrei||||||||||||||||||||||||||||||||||||||||||||||||||||||||||",
"||||||||||||||||||||||||||||||||||||||||||||||||||||$$$$$$$$$$$%$%$$$%$%%%%%%|||||||||||||||||||||||||||||||||||||||||||||||||||",
"|||||||||||||||||||||||||||||||||||||||||||||||#@@O@@$$%%$-$%%%$%%$$$$$$$%%%$%%%%|||||||||||||||||||||||||||||||||||||||||||||||",
"||||||||||||||||||||||||||||||||||||||||||||4@@+@@$@$$$$#-:;:=***%=&%$-$%$%$$%%%$$$,||||||||||||||||||||||||||||||||||||||||||||",
"|||||||||||||||||||||||||||||||||||||||||w@@+@+$&#-#%=->:,,:,&<&-,,>,=;,:>:-$$$%%$#$#$2|||||||||||||||||||||||||||||||||||||||||",
"|||||||||||||||||||||||||||||||||||||||%OO@+OO+#-@>,>>-,:,2,,=:$>;2,,;;>,2,%-1,=$$#@@#$$#|||||||||||||||||||||||||||||||||||||||",
"|||||||||||||||||||||||||||||||||||||@OOOOO@%*$:=@;,-;%*%&&%%%:$#%>-$$%**;>%,=,-2;:%#@=##@$w||||||||||||||||||||||||||||||||||||",
"|||||||||||||||||||||||||||||||||||OOOO@@$&:**:;*%$#$$%$%%%*%$$#@$@$@$$$$$%%%%=%;-*,-$:$+#@##@||||||||||||||||||||||||||||||||||",
"|||||||||||||||||||||||||||||||||OO+oO@&::*:$:$OO@$$$&-:*>>660<%$O@,<$$$$$%$$%$$$*$:$-=-$#+#@##|||||||||||||||||||||||||||||||||",
"|||||||||||||||||||||||||||||||$@oO:OO==:&*&OOOOO+O><iMFKIIYYYUKShau5<$O$%%%$O$O@$&%@---=-;#+@@@#|||||||||||||||||||||||||||||||",
"|||||||||||||||||||||||||||||8ooooo%%@@-@@OOOOOO@%qFIRWWRYYYYRRRTTGGFBhh<$%$O$O$$@@@#@#$:==:*++@#+,|||||||||||||||||||||||||||||",
"||||||||||||||||||||||||||||%o+%o%=:-=++@O$OOOOO<ZYRWRRRRYYYUYUUYYYILIYGZa7*$OO$$$@@@@@@@%-;#==#-%#+||||||||||||||||||||||||||||",
"|||||||||||||||||||||||||||O++=o@:=@@@@OOO@OOOtMTRRWWRRRRYYYUILLGLGYGGGGGYGSd<$O$@O@@#$@@@@#@;;:=##+#4||||||||||||||||||||||||||",
"|||||||||||||||||||||||||3Oo$#O=%%@OO@OOO@O@>MUYTRRRRYYRYRRRYUIGGGGGFFFZGGLYLGBs,$@@@@@@@@@@+%==#,#+#+-|||||||||||||||||||||||||",
"||||||||||||||||||||||||=++O$=o+$OOOO@OOOo@lUWYYTTYTR^((```_(!IKGZSSZBBSZBZGGGFZc0%OO@@@@@@+@+@$-+2=+#++||||||||||||||||||||||||",
"|||||||||||||||||||||||@+O+%$%%oOOOO@O@OO:MIYUUUYRW^``'````((^WYGFBMnnBxBZBhZSSBMns%O@@+@@@++@++##;=;####|||||||||||||||||||||||",
"||||||||||||||||||||||@@O%=+%+oooOOOOOOO1SIUYYYY^'_`_`''``_//!YIGFccllgllMhlgggMMlla%o+@@++OO+@+#-#;;,#+##4|||||||||||||||||||||",
"|||||||||||||||||||||@@@*%-#oooooOOOOOOtZUYYYY!________`_((/^^WIGGndidggdkhggyttagtty<@O+++@+++++++#;=;=+##4||||||||||||||||||||",
"||||||||||||||||||||@=$;$;$oooXooOOOOo6ZUUYYW(____(((__((/W!WWUKGGZxaqtadagggay97tt199:%o+@+@@+@++#++;-=;###4|||||||||||||||||||",
"|||||||||||||||||||@@+;=-#ooooXXoOOO:tZLUUR_`____`__((((^WW!!W!USZxbgyy0yiyyyitt7,16,91%+o++O+++++++#+=;==###4||||||||||||||||||",
"||||||||||||||||||#@@-%>OOOoooXXXoO$fSLUU!(_```_____(((/!WWWWTWYGVclcy9800900t7507><,,6*@Xo+O@+@#++#+#+=;;;###4|||||||||||||||||",
"|||||||||||||||||$@@$=;@OOOooooooX<MLUUL^`_`__``__(_///^!TWW!UYYGMcgdiq671,>6tu5<66::%,1%oo+@+@+++++#+##=;#####4||||||||||||||||",
"||||||||||||||||$$#;-@@OOOOoooooo<MUUUL^____``____((^^~!WUYWWIUISMhgiyt966:>>77t6<<1-&%%&OXOO@+@+@+#+#+###=;;###||||||||||||||||",
"|||||||||||||||%=>;*;@OOOOoOoOoo1MTWUU^(____`_______^^!WW!!UILKGVckgiyq977&&:><701>-:%@$@+oo@+@@++++++#+#+=;;=###|||||||||||||||",
"||||||||||||||-$%=:;$OOOoOooooO5ZY!YY!____`_'_(__(__((^^^!WYKGKGMchgyytt81:&:><<88>>*&@$OOoX+@+++##++#+++###2;=###||||||||||||||",
"|||||||||||||8#%;;$&+OOOoOOooO5ZYWWYY(_(_`______(____^^(/WIULKFZMhhdtt996,<&&:><1t6:**&$@OOXO+@+#++@@++###+##22###=|||||||||||||",
"|||||||||||||#$%$%%@+OOOOoooO*nG!!Y!^(((_`'`'_((_(((^^^((WUILLKSMhgsttt66,<:::>>6801:*&%#+OXO++++#+@+++#+####==;###4||||||||||||",
"||||||||||||#$%,,&@@O@OOOOOO>sBT!!~((_____'_'____(__^^^((^WILIFMMhgdt0766<:>>>><10981>*&$$+XoO@@@+@+#+@++#####;##=##||||||||||||",
"|||||||||||-$#--,$@+@OOOOOOO:0GR!!~(`(____''``___(__^!^^(^WIIGSFMlhssa877<>>*::>19y811<*&%$oX++@+@@+++@++######;;=;##|||||||||||",
"|||||||||||#%=-;#+@@OOOOO@OOOuLW!WW(`((________(((/(~W~~^^!UKLLLFMhgttt661>>:&-><ty01:::*&%OX++@@@@@+@+####+###==2=##;||||||||||",
"||||||||||#%%;:-$@@@O@O@@OOO#gLW!WY/_(((____'__(((^^^^~~!!WULILGKZhgtt9976>&&%%:19st6,:::--@oo+++@@++@#+++######;;=###||||||||||",
"|||||||||,##:;:$@@#+O@OOOOOO@hY!!WY^_((/(______(_((/^^~^^WWUUYILFZhhssat77>*$$&&:7dt6>:::-&@o+@+++++#@+#########==2=###|||||||||",
"|||||||||##%,=,=@@O@OOOOOO@O*hTW!RY^_^^//_`((_``___(/~~!/~WWTTIFVMcgdaiu705*&&**:1ai5>>>>*%OOO$O@+@@@@@#@##$$#%##;==###|||||||||",
"||||||||*##;%;$$@@@OOO@OOOOo,xRR!RY^`/^^^_((_(_`__((^^~W^~WYIIIFMlgldaa001<:&OOO%<ia31<>>*$OoOOO+@+@@@@+#+@#$#######;#+#||||||||",
"||||||||##@#;%#@@@O@O@OOOOOO*cTRWWY/_(/^/(////(`_(((^~^U~^UYKFSMggcxdiu0171<&OO&%>0u11<<:&OOOOOO+@++@@#@#@@####$=#;;2####|||||||",
"|||||||;#@>,%$$@@@@OOOOOOO@$@nYRW!Y/`/_^^^(_/(_((_^(^~WSG!!IKFMZMMdsV0<<*>51>OO&%>7u51<>*%OoOOOO@+@@@@@@@@####$####;==###|||||||",
"|||||||$#=,,%$$#@@OOOOOOO@O$%hYRWWY!//((^(/_((((W/W~WYIVZ^RFFIUIMit:5>&OO:<*&OOO$:30333:%OoOOOO&@+@+++#@@#@@#######=;==###||||||",
"||||||;$#2%=$$$#@@@OOOOOOOOO&hYWRWRW/////(/(`^/(~W~TYFZSM^ISGUShq*&O&>&O$$O$%O%O$%<7355:%OoOOOOO@@+@+#+@@@#####%###=2==###||||||",
"||||||%##=,%$#@@@@OOOOOOOOOo@tLRRWWR(^/(_~^_`~^^TIYIRVFGfGRWUMt<$OooOO&&%O$&O$$$O%>1170>OOOOOOOOO@++@+@@@#@#+#$#=###=2;###||||||",
"|||||2%#-*=$$$$$@@@OOOOOOooOO<GRW!WR^!(_^FKFFZFxuyhBMZMMhM(WM<$OOoo@%&>>*&%*&*OOO$:<317>$%$oOOOO+O@@+@@@@@#####$#####2;##+#|||||",
"|||||%#%;,%#$$##@@@OOOOOOoooOOZYTW!R!^(_^gt<777<:*<tugaMZgIM6**OOO$><>>:>>%*&$OO$$*-:11>:OOoOOOO@+@+@@@@@$#@#####=###=;;##+|||||",
"|||||%#%2-#%%$$#$@@@@OOOoOoooOsYRW!W(__(^Z7-**$@&$$:17>MSch906$OOOO$&o@@%<>&&*%$$$$-:>::OOOOOOOO+@O@+@@##@#$##$$#####=;;;###||||",
"||||;=#,2=%%$$$#$@$OOOOOoOOOOOaYRW!!^__/IMdq<*::$OO&::7GYSMt>&OOoo>:%$<&OO<-&:*%O$$%:>*%OoOoOOOO++@@O@#@@@@$##%$###=##=####+||||",
"||||=%==%#$%%$$$$$@O@OOOoOOOO&fYTW!TR__!KSZcs776<>:&%&tFWYSu$ooOoO6t1,<:%%&:**>:%$O$&>*OooooOOOO@O@O@O@@@#$#####=######;;#++||||",
"||||=%=,;#$%$$$$$$@$OOOOooOOOOuGUWWRY^_!YLRYRIGl6&$O$$6G^^Gf&OOO&qi077111<::<51<:OO&O*&OOXOoOOOO+@O@O@@@##$##$%#######=;;###=|||",
"|||=%%##%%%%$%%$$$@OOOOOOoOOOOuBKWTWYW_/RW!WGg<&oO$oo:tG_^Gs:OOO10dgsaauq9,1051<:*OO%OOOOoooOOOOO@@@+@@@@@###$#####=###=;2=##|||",
"|||==%2=%%%#%$$$$$$$OOOOoOOOOO&uFTYRYT`_/(!h@:0:-:,$&tlU`(Ul<OO*6agahbhhiutqu01>&OO&OOOOoXoOOOOO+O@@@@@@@@#$$$$#=####=#=##=##|||",
"|||=%-2;%%%%%%$%$$$OOOOOooooooO<MTRWYI/_(^F&%dSndt1%7gZW``Uh<*&>6dcBMMBBbchfu71>&&O&OOOOoooOOOOOO@++@@@$$$@$$$%%#=#=#####=####||",
"||==%-;%%%#%#$%%$$@@@OOOoooooXo&U_/^TI/(^^y,bVFbt8<1iFT!``YM6&&&1ycMSDSIIhhhst6>&OO&OOOOOooOOOOOOO@O@@O$@$#$%#%##=#=%###2==##+||",
"||-=*,,=%%%$%%%$$#$@@OOOOooooXo&RT^_RK^_WUlI_/RGMt9iF!^^_`~h7&O&,6dcZIYTSMMggs7<:&&OOOOOooooOOOOOO@@@@@@$@###%##=#=#%###;;=#+#||",
"||=*=2,=%%%%%%$$$$#@OOOOooooXXX&c3cR~L^/~/R_((!DsaxF!^^^_`/h1&$$:1tlMIRIFZMgldt1>&*O&OOOoOoOOOOOOO@@@@@@@####$%%%%#=##=#;;;###||",
"||-==;,$%%%%$%%$$$#@$OOooooooXXOy$@iRI!````_^!SnbSJ^`(^^_`/M7*$$&:8gBITRSZMMggy01>OOOOOOOOXOOOOOO@OOO$@$@@$#$%%%%==#=%##=;=####|",
"||==-,2%%*%%%%$$$$$$OOOOOoooXXXX96@6KYR_`````RTTKT```(^__`~Mt<%%%*7gnGIFSMMghgyt<:O&O*OOOOOOOOOOO@O@@@@O$$$$#$%%=%%=%%###24####|",
"|;;42;;%=%%&%%%%$$$O$OOOOoooooXX:g:9L~W_``___(^!^(``_^^(_`/Fs1%$$$<gMFIGFVlglay7>::O*OO&OOOOOOOOO@@@@O@$@$#$%%%=%=%==%%##=#=#+#|",
"|;;-=--%%%%%%%%$$$$$OOOOoooooXXXodii^~T^`____(^_````_^^(_`_Fd1%OoO$abFGIIVcgdtt9>*:&&OOOOOOOOOOOO$O@@@#@@@$$%%%&==%%#%#%#2;;#+#|",
"|;;-%%%%&%%%$%%$$%$$$OOOooooXoXXX:dg/FL^(______`````~F!(_`_Gg7%Oo@@1bFIIGSlsytt7<::*:O&OO&OOOOOOOOO$@@@@$#$$$%%*=%=%%=###;2=###|",
"|;;422;*%%%%%%$$%$$$$OOOOooooXXXXotZ^FU!^(_(`_`````(Kh^__`_Fg0&OOO%$tMZFDSlsytt61::*O*OO$OOOOOOO$OO$OO$$#$$$$$%=***=%=###==###+|",
"|>;*=%&%%%%%%$$$%$$@OOOOOOoooXXXXX%F~WU!____``````(!cg`(_`/Fd7*@O$&O-gMSSMhayt791::*<OOO&OoOOOO$O$O$$$O$#$$$$%%%*==%%%%=#####+#|",
"|;-*%%%*&&*%%%$$%$$$$OOOOOOoooXXXXXg^/~!(__```````(Gtg_^!!KMu<&OOO%OO7cZVMsst766<:**:O*:&OOOO$OOOO$$$O$$$#%$%%%*&=%=%=##=####+#w",
"|>>=%*=*%%*%%%$$$%$$$O$OOoOoooXXXXX$R(^R^__``````(Ig1aIYGZhs7*&OoOoo$:aMMhsst761<>*&*&:O&oOOOOOO$$$O$$$$$$$$$%==*====#%%##=####w",
"|,-=&**==*%%%%%$$%$O$OOOOoOoooXXXXXXa_^T___`````(!bt1MFasat6,%$OoXoO@-0hbMst961<<>*&:*:$OOOOOO$$O$$$$O$$$#$$%%**=-**%=%##==####w",
"|;;=%**-***%%%$$%$$$$$$OOOOoooXXXXXX$J/T^^__(_`(TFs16I/TMGM7<*&@OOO$%:1ahhga061<<>:&***OOOOOOOOOO$O$$$$$$$$%%%***=**=%%%#######w",
"|>-&%&===*%%%%%$$$$$$O$OOOooooXXXX XX6WR!~^^/(^~Ib9,g!```_!htt<&%OO&%:<6dggat771<<:****OoOoOOOOO$$$O$$$$$$$%%**==*%==%%%=######w",
"|;=*%*---*&%%%%%%%%$O$OOOOOoooXXXXXXXoG!!!^^^^!IVi<<G_````_VgMs7<<>:::,1tgsat866<>::&:&OOoOOOO$OO$$$$$O$$$%%%**=*=**%=%=#=#=###r",
"|:*%&&:*:&&$$&$&$&$&$O$OOOOOooXXX  XXoM^W!!^!WIZf6:d!_```_^GUWKhtt76<>517tgssy96<><:*:*OOOOOOOOO&O&O&O&OO*&%****-&*&==%%%%#####r",
"|:*&$&&:&&&&&&$$&&$$$$$O$OoooooXXXXXXoy~!!!^~WUSy1tF(_`_`_/!_(^hstt6<55060sgli981>>:::*OOOOoOOOO&OOOO&&&%*%&&****-**&=*=%%#%=%#e",
"|:&&&&&:&&&$$&$&$&$$$$O$OOOOoooXXX XXX&I!^!~^UGMy6MR__````_(_^Zdt76<><5t90tlggt7><>**:OOOXoOOOOOOO&&&&O&%O%&*&**---**&===%%####w",
"|:&$$&&&&&&&$$$&&$$$$$$OOOoooXoXXXXX X tK!!!/RGVyyU(___`/ISKGyt1:%%$$O&167yMlgy01<<::*OOXXXXOOOOO&O*OO&O%O%%&&*:---&**=-=%%%=##e",
"|:&%$&&:&&&&$$&$$&$$$O$$OOOOooXXXXXX  Xo>S^~^WIVtM//^(~GdyMyy<:&OOOoXOOO*1dMbga81<::>:  XX XXXXOO&O&&&O&%O*%%***----===&===%###r",
"|:&%$&&&&&$&&$$&&$&$$$OOOOOOooXXXXX X XXo1!/^!RFyG^UIId11>ts1<165:>>*&&*10MZcgs81<<:<&  XXXXXXXXOOOO&OO&%O%%%%::-:--*=&&%%%%###w",
"|*=%$&&&&&&$&$$&$&$$$$$OOOOooooXXXXXXXXXoOU_^/!UMMKd11dMFUR!RLGMft6<::>69aDZMgy8<<<:<O  X   X   oOOOOO&O$%O%%**:----*&*&*==#=##|",
"|*%%&&&&&&&&$&$$&&$$$$OO$OOOoooXXXX XXXXXXc/^/^IFMVGGR^(_(/UIScst1<*<6779tGMcsa611<<1O            XXOOO&$$&$%&:*-:---====%%=###|",
"|:%%%%**:&&$&$$&$$$$$$OOOOOOooXXXXX . X.oX:!///!WIU(___(/WUVVdsy<16<66067sZMhgy611<<t&              XXXOOO&&O:::::-*=*=&*%%#%##|",
"|**%%%**&&&$$$$$$&&$$$$$$OOOoooXXXXX.XX.XXoD///^~!W_`__(/UFMVgdyt1t8t7786llMhst7<1>7MO               X XXOOO&*:*----*-=&*==%###|",
"|:%%%=&*&&&$&$&&&$$$$$$O$OOOooXoXXX..XX XXo1!/_(/!U(___~WRIGMhdgatatyt91yglMht91<<<hhX              XXXXXXOOOOO*--*--*-&%=%#%##|",
"||%%%*-*&&$$$&&&&&&$$$$$O$OOoooX...XXXXXXXooG/(_/^U/__//~!IGMBMMhlllli99Mgsglt96<<tF>X              XXXXXXXOOOOO@%*--==*=*%%%#$|",
"||&%**:*&&$&&&&&&$$&$$$$$OOOOooXoX..XXoXXXXo<!/_/~U/__/^^~RUFGIGZFFZMgtshutas861<<Mf                  XoOXXOXXooo++@%*=**=%=#%||",
"||%%%**&&&&&$$&&&&&$$$$$$OOOooooXX..XXXooXoooc/^^UI_/(((((_^!!!RTTIFMcssa6779716<yZ&                  XXoXoXXOOoooooO@$%*%=%%#||",
"||%%=**=&&&&&&&&&$$&&$$$$$OOOooXo.XooXoXXXXoo%I~~UU/___`__`__(_/(TISMgsat<<116711Mu           XX     XXXOOOOOXOOOOOoO++++##%%%||",
"||%%%&*&&&$$&&&&$&&&&$&$$$OOOoXoo.X..oXooXoooo1UUUUU/_`____``__/!IIMhgs96:>:,161fh&           XX    XXXOOXoOOOOOO#++@#+#+++++#||",
"|||&%&&%&&%%&&&%&$&&$&$$$$OOOooXXoXoooXXXoooooOdRUUU(((``((((^^UIGZlgaa6>>:*:>>6h1X           X  XXXoooOOOOOOOOOo@Oo++O++oOoo+||",
"|||%%&&%%$%%%%%%$&&&&$&$&O$OOooooXX.XoooXoooooo&MUISR/(`(//^!UISSGlhayt6::*::>>ttO      X     XXXXXXoooOOOOOOO%O@$@@$$#$###@+|||",
"|||&&*&%%%%%&*O&&&&&&&&&&$$OOoooo.oXoXoooXooOO%*t~GMMR^(//~~UIZMMhdyat6::*:<:>>uOoX        X  XXXXoXooOOOOOOOO%O$%$$%$$$$$$#+|||",
"||||&&&%&&&&&O%&&&&&&&&&$$$OOoooXoooXooooooo$$$*Z{_ctcGW!RWUVMdhsattt6::*>>>>O<<oX         X  XXXXXoooOOOOO&OO&O@$#+$$@#@@$#+|||",
"||||&*&&&&O&&*&&&&:::&:&&$$OOooooooXoooooOOO*&$:~{{`StsMZSFVMyyyt907<,:::>>>OOtO        X  XXXoXXoXoOOOOOOO*OO*O$%$@&$#$##%#||||",
"||||&*&&&&:&&O*O&::&&:&&&&$OOooooXoXoooOO%:&:*$t`[[{{Kfggghyt6<:,,,<,::::>>%O>t   X     XXXXXXXoooooOOOO&OO:$&:&%*%$*%$%%$%%||||",
"|||||&%%O*&&&*&&&::::::&&$$$OOooooooXoOOO*&$*&&f[[[{{[UMccMhdt6t6111>::><>&O&M-         XXXXXXooXoXXOOOOOOO:O%&$@%$@$$@$##%$||||",
"|||||&%$:O&O&O&*&:&:::&:&$$O$oooXooo@O%%&:*&**-B{`[{{}{IMMSKZddyu701>>-::-OOuF    XX   XXXXXXXooooooOOOO:&O:%%*%%&%$&$#$$#%|||||",
"|||||&&$O::&O&&::::>>:&&&&$OOOoooOOO$&>:-::*>>>U]`{{{}}]GMZUKhhhs08<>-*-%OO<LZ    X XXXXXoXoXooOoOOOOO**&&*>&::**-*%-*$&%%&|||||",
"||||||&%:OO&:&&*>>>>>:::&$$@OOooOOO&&:>&&*&&:::'{`[{{}}{_IMKUMMMat6,-*&%OOOB/t    X    XoXXoXooooOOOOOOO&$&:%%*%$%%$%$$$$$||||||",
"||||||%%OO>&&&::>><>>>:&&$$OOOOOOO&>::>&&:::::<[[`]{{}}}{(UKTGMMy0,-&%$OOOu/Ro   XX  XXXooXoooOOOOOOOO&*&&&:&&:&%-&$*%#%%$||||||",
"|||||||&*&:&*&::>>>>>>:&&$$OOOO$:><1>>>*-<<>>:t}[`[[{{}}{]_~!TZgt<*&$OOoO>YW%   ooo XXXooOoOOOOOOOOOO:O:>>>>::>::,-*:****|||||||",
"|||||||&O:****:>>><>>>>*&$@@O$$&<:><:**&:1>:>:<{]`{{{}}}}]``_/Is<*%OOOoOOGW&   oOoX   XooOOooOO&OOOOO*O>>*>>::<**>*%*%$%%|||||||",
"||||||||*O&*::::>>>>>::&$@@OO&&><>>>&%*:>6>:>>&sT_]{{{{}}[`]``!d*@@OoooOsK-oX XOOoX  XXXOoOOooOOO:OOO>O>>:,1>>,-->***%@%||||||||",
"||||||||*&O:*:::><>>:**&$$$$:<><t<>>&*><<t1<1<*O:yU_[{{{{{`{[`!f:%OOOoO:f:oOOXX%OOX  XoOOOO%OO&&:*O*O:<<1117111<,<>-,*$$||||||||",
"|||||||||&****:>>>>>>:*$&$&>>t><<<&:$%t1><<><>$$1OO7Z/]{{{`][`RMt<-&:<&$&OoO$ o-&OX  XooOOOOOOO*O*:O:O*<1<16<<1>>,-&-=#|||||||||",
"||||||||||**>:>>,3,>>>**$:<176,<1-%%&:6<<6<<1:O&: X$$-yF^'][['(/WGSZSsOoOooO@ O:Oo  oOOOOOOOOO&O*:*OOO<56<36<<<::,*%*-$|||||||||",
"||||||||||*->,7wjq::,->,19q7q9551-&:>60667766:%7&  $&<:&6fU{{'^WWUMt>&OooO$%%o*6>o  XOOOO%&*&O*::>>O:>109779768yj3,%*-||||||||||",
"|||||||||||>,q1wp,2,>,7709q77711:&&<167119611:&7   O:79<<<<ZLFu97<:$OOoo$::>%X,t>o  XoOO*OO:&O*:O:OO&<107780y68kyw:#$%||||||||||",
"|||||||||||->,7j41>1<7iiqq9777<:*$:6167<171,1%*6   &7sfyyt1<<&6t:oooXOO$>1t1oO10:o  XoOO*OO&$&&$OOO*><<0999tdzpew:oo+|||||||||||",
"||||||||||||,<7;ee598tddiit907,:::89098899716&69X $177616t<>&:tt:&OO>t:O&1d-X%ty>oX XoO&:&O>*$OOO$><5550itiaqppjj=+o||||||||||||",
"|||||||||||||,-q8qpiislhiiq9q6:*<7ttt99879611&ty$ O:%oO$&*OoO*1<&&-$&:o $1uoX:gs:XX XoOO*&&<*OOO&<<<505tiiaazpzy<-+|||||||||||||",
"||||||||||||||->2-eCflldytq77>&&198q69t6771<:&ys:OoooO$$:&  o&-%%%**OOoo&y1 o1hg&   XoOO:O&>:OO$*><:167tiaddzzpy:=+|||||||||||||",
"||||||||||||||1<%7vCmbldyi091>&:69ty9ty99t91*:yy1:$O o$:tO  OO&>&O>:$OO&9h$ $sMh&   oO&O&&:<>>>$&11>6ttudgvNNppz8*||||||||||||||",
"|||||||||||||||1O-zACMggyit6<>&:<6yyyyyy0u91&O@$OOOO  o&%   o&66%:>%OO&>tt O<bVc&X   XOO**:<:<7<$><18ttaglNNsd88>|||||||||||||||",
"||||||||||||||||X%9cnllCaq6,:-%&::608yy09u7>O Xoo XX   XoX  O>7>*%&O:t&*96@*8MVMOX   XOO&&&*&:65>$:18tygbNNck73<||||||||||||||||",
"|||||||||||||||||%6cMAVkij7<<>*::*10qidyqy9:O $,OO$O    XO  O-::OO&OtfO<tt91sVVc&XX XoOO*:*>>1770<:<yddzNHMMq76|||||||||||||||||",
"||||||||||||||||||3xBAhzkq6<<>*>:*,9igksyy7%OX-<&$&:$OoOO&OO&:17thhhS1O>9at8lZZh&oXXXOO:*:>>>5777t6<ydvAHNngq7||||||||||||||||||",
"|||||||||||||||||||dcNMkzp2-**&**$&6ydi89t,OXo*>OO&-O%OOhLhSI!^//~((LOO&9y61bVVhOX  XXoO&%&>->77178-6anAnNgs7|||||||||||||||||||",
"||||||||||||||||||||nbcNaj8-e:&**$:8ytq9qq*OX$0ay77<>&$-_/^^^WWWIY((ZXO&9y1qMgu0&oo XXOO%&*<,,77618:pndcACga||||||||||||||||||||",
"|||||||||||||||||||||ngpzy8y<>&&::8yt0q7y0-@XZZBMMGGMf7u'/WW~W!!RR//tO&>081icxhhfd5XXoOO&&>1<188t66:NvzlvNd|||||||||||||||||||||",
"||||||||||||||||||||||dq4ji<e<$:169q8:9:,:&o&GGBMFKYW^`LFGhMSSGGSBGM>6ttF!TYILVfBhfXXoOO>&%<<<87tayjvNzgga||||||||||||||||||||||",
"|||||||||||||||||||||||i76<i288qy88qqYYYDd7$hYZBGYLYW~{]0SGI!/R!Y`LL_h}K[{!WLRGSnBhto>7ahh<,,88qq8rqCvggd|||||||||||||||||||||||",
"||||||||||||||||||||||||d3,>wzjjd877JYWYGSqdhadnFGR/^W{{0Rf]hFfuRf[GhfhI{{^YYRKfndnG7ihZZchq5jq8j48mdllv||||||||||||||||||||||||",
"||||||||||||||||||||||||||;1izqdkr2n_!GJLn=Xo@*$O*3fY({[f_f'Ghhsut{Rf!MM{}'!Gf<&@XooX$nBncBc3ej3;waqigV|||||||||||||||||||||||||",
"|||||||||||||||||||||||||||iiqej7k88,1dlbh*XoO>,0*-*o-B/LGfIfWf~uu!BRW{`Yht*thfOi<*&%Xanhq198eia*,qqi|||||||||||||||||||||||||||",
"||||||||||||||||||||||||||||Viqqj8emAdC7>>37qqq@3><137ubffuhZBBcfFhhfu:::>fMhZB>X$@1,21%$>=dz7,8>qid||||||||||||||||||||||||||||",
"||||||||||||||||||||||||||||||e7i8jyzNluq4- *,&>:*>13uFWL!ILZBBMt1><1ust67hMhhBh$#&@%.o-8,,5vq-%,q||||||||||||||||||||||||||||||",
"||||||||||||||||||||||||||||||||i77zVzdew$4 ,77,*&>550IYLRIIRPYJt1<11tut67hMhhMM1   X%=-$28-:=%*1|||||||||||||||||||||||||||||||",
"|||||||||||||||||||||||||||||||||iqdlvlz,3;;yqpw7:<70u!RR^YR!WWd0>616uft7yMhhMhM3.#+w,;w2%3,,&*|||||||||||||||||||||||||||||||||",
"|||||||||||||||||||||||||||||||||||blvs82,;=jaep,*,35i)YYQYY!YMq1:<16iiq6ucllMMSj,;=-=8#%$>>*|||||||||||||||||||||||||||||||||||",
"|||||||||||||||||||||||||||||||||||||Vt-%+#,dz7w,i3iqa`PTYEPYL9681<<7aa87hMNNNHNmo4=+%.X++-|||||||||||||||||||||||||||||||||||||",
"|||||||||||||||||||||||||||||||||||||||j*@ $ppp8pj8jil'Y)/)Q~v9<y2wqdlmdtSNDNDGSz=     X,|||||||||||||||||||||||||||||||||||||||",
"||||||||||||||||||||||||||||||||||||||||||%-i7>,78jpqn]WQWQ)Lje-e4pkjmCiuIZNHDADi    +||||||||||||||||||||||||||||||||||||||||||",
"|||||||||||||||||||||||||||||||||||||||||||||e&*->7qql_KQQYEji-%e,pekknpgVFMNlMNiX+|||||||||||||||||||||||||||||||||||||||||||||",
"||||||||||||||||||||||||||||||||||||||||||||||||,1qiyn`PYWWlq8*%,<98qaa9lNMMMMMM||||||||||||||||||||||||||||||||||||||||||||||||",
"|||||||||||||||||||||||||||||||||||||||||||||||||||||B_YW~V7q>$$%:69idaiMMM|||||||||||||||||||||||||||||||||||||||||||||||||||||",
"||||||||||||||||||||||||||||||||||||||||||||||||||||||||||||||||||||||||||||||||||||||||||||||||||||||||||||||||||||||||||||||||"
};
