<?xml version="1.0" standalone="no"?>
<!DOCTYPE svg PUBLIC "-//W3C//DTD SVG 20010904//EN"
 "http://www.w3.org/TR/2001/REC-SVG-20010904/DTD/svg10.dtd">
<svg version="1.0" xmlns="http://www.w3.org/2000/svg"
 width="256.000000pt" height="256.000000pt" viewBox="0 0 256.000000 256.000000"
 preserveAspectRatio="xMidYMid meet">
<metadata>
Created by potrace 1.11, written by Peter Selinger 2001-2013
</metadata>
<g transform="translate(0.000000,256.000000) scale(0.100000,-0.100000)"
fill="#000000" stroke="none">
<path d="M1140 2554 c-560 -72 -997 -473 -1116 -1024 -26 -119 -26 -381 0
-500 49 -227 160 -447 309 -611 l49 -53 -8 39 c-4 22 -11 42 -15 43 -5 2 -7 8
-3 13 3 5 0 9 -7 9 -8 0 -6 6 4 18 21 23 22 33 2 26 -11 -5 -13 -2 -9 10 5 12
2 15 -10 10 -9 -3 -16 -13 -16 -21 0 -8 -4 -11 -10 -8 -16 10 -12 23 11 35 16
9 24 8 38 -4 23 -21 33 -20 59 5 29 26 62 33 62 12 0 -9 6 -13 15 -10 8 4 17
2 20 -3 4 -6 -2 -10 -13 -10 -16 0 -18 -7 -17 -47 0 -27 -4 -55 -10 -63 -9
-13 -8 -13 8 -1 9 8 21 11 24 7 4 -4 1 -11 -7 -17 -13 -8 -13 -11 3 -23 9 -7
17 -18 17 -24 0 -16 -36 -33 -54 -26 -9 3 -16 2 -15 -2 3 -40 73 -101 95 -83
9 7 18 1 33 -24 22 -35 104 -87 117 -74 5 4 0 21 -9 36 -9 16 -17 31 -17 33 0
2 19 5 43 5 58 2 59 2 52 14 -9 13 -86 8 -102 -7 -6 -6 -11 -19 -10 -29 1 -10
-4 -20 -12 -23 -10 -3 -12 0 -8 13 4 9 10 29 13 43 6 25 5 26 -11 11 -15 -15
-20 -15 -46 -2 -45 22 -33 45 29 56 32 7 32 6 14 -13 -13 -14 -25 -18 -38 -14
-18 7 -18 6 -1 -12 18 -18 19 -18 32 -1 12 17 15 17 37 3 23 -15 26 -15 55 19
20 22 40 35 56 35 31 0 58 -10 53 -19 -3 -4 7 -6 22 -5 15 0 32 10 41 25 23
35 43 48 66 42 11 -2 36 -6 57 -9 20 -2 48 -8 63 -14 35 -13 35 -13 35 9 0 10
6 23 13 29 13 10 175 28 215 24 17 -2 25 3 29 17 3 12 10 21 15 21 12 0 1 -54
-18 -94 -8 -16 -14 -30 -14 -31 0 -3 113 14 140 21 14 4 54 7 90 8 61 1 65 0
78 -27 7 -15 17 -27 23 -27 5 0 9 -4 9 -9 0 -5 -17 -9 -37 -9 -48 1 -102 -8
-172 -30 -42 -13 -92 -17 -206 -17 -131 0 -158 3 -215 23 -72 26 -206 38 -226
21 -7 -6 -10 -17 -7 -25 4 -12 0 -14 -22 -8 -24 6 -27 4 -22 -10 4 -9 2 -29
-4 -44 l-10 -27 25 30 c14 17 25 26 26 22 0 -9 -30 -57 -48 -76 -17 -17 -9
-24 51 -46 42 -16 50 -16 58 -4 7 11 9 11 9 -3 0 -12 16 -22 55 -33 30 -9 59
-14 64 -11 5 4 12 2 16 -4 13 -21 31 -9 32 23 1 17 4 41 6 52 3 11 9 42 13 69
l7 48 51 -7 c28 -4 80 -11 116 -15 36 -4 58 -8 50 -9 -22 -2 -73 -82 -60 -95
15 -15 12 -29 -5 -22 -8 3 -15 1 -15 -4 0 -6 5 -10 11 -10 5 0 7 -5 4 -10 -5
-8 -11 -8 -20 0 -10 8 -17 5 -29 -12 -9 -12 -16 -26 -16 -30 0 -5 44 -8 98 -8
94 0 97 1 109 25 6 14 8 23 4 21 -10 -6 -26 5 -39 29 -11 19 -11 19 -12 -2 0
-13 -4 -23 -10 -23 -5 0 -10 9 -10 20 0 11 5 21 10 21 20 3 25 5 40 14 28 19
44 47 42 76 -2 23 2 29 17 29 22 0 22 -30 -1 -58 -10 -12 -10 -14 0 -8 6 4 12
3 12 -3 0 -5 -5 -13 -10 -16 -6 -4 -4 -12 6 -22 12 -13 13 -17 2 -24 -10 -7
-9 -9 4 -9 15 0 21 17 44 127 4 20 57 53 84 53 13 0 51 -72 46 -86 -3 -8 -1
-14 4 -14 5 0 7 -25 4 -55 l-4 -55 87 31 c99 35 243 107 288 144 25 21 28 27
15 35 -14 9 -7 14 13 11 5 -1 6 3 2 9 -4 7 -12 7 -26 0 -11 -6 -16 -16 -13
-22 4 -7 -9 1 -29 16 -37 28 -49 50 -23 40 8 -3 17 -12 20 -20 6 -16 36 -20
36 -5 0 6 -13 18 -30 28 -16 9 -30 21 -30 25 0 11 14 10 26 -2 26 -26 74 23
74 75 0 23 28 55 48 55 7 0 12 5 12 11 0 5 -4 8 -9 4 -5 -3 -12 -1 -16 5 -3 5
1 10 10 10 10 0 13 5 9 12 -4 7 -3 8 4 4 7 -4 29 11 53 35 l40 41 45 -17 c24
-9 44 -21 44 -27 0 -6 -7 -7 -17 -3 -80 34 -76 34 -88 -5 -7 -24 -7 -24 12 -7
11 9 26 17 34 17 21 0 38 -20 32 -36 -3 -8 0 -14 6 -14 6 0 11 -5 11 -11 0 -6
-7 -8 -15 -5 -8 3 -22 9 -30 12 -10 4 -13 2 -10 -8 3 -8 -3 -24 -13 -36 -18
-20 -25 -77 -11 -77 13 0 119 126 167 198 94 138 162 299 198 467 26 119 26
381 0 500 -109 505 -485 887 -986 1001 -83 19 -331 33 -410 23z m180 -177 c8
-2 38 -7 65 -12 28 -4 57 -13 65 -20 8 -7 28 -15 43 -19 68 -16 135 -49 177
-85 45 -40 51 -67 8 -37 -26 19 -47 21 -30 4 24 -24 11 -27 -23 -6 -20 11 -39
18 -42 15 -3 -4 -15 -1 -27 5 -18 10 -19 9 -9 -4 7 -8 11 -24 8 -36 -2 -12 0
-24 6 -27 5 -4 9 -12 9 -18 0 -7 -9 -1 -19 12 -18 23 -60 34 -71 19 -3 -4 -23
4 -44 18 -23 16 -44 23 -54 19 -15 -6 -15 -8 2 -21 11 -8 14 -14 8 -14 -9 0
-10 -5 -2 -19 7 -14 6 -23 -3 -33 -15 -17 -22 -52 -8 -43 6 3 11 1 11 -4 0 -6
-5 -11 -10 -11 -16 0 -29 -43 -18 -57 5 -7 7 -17 3 -23 -3 -5 -1 -10 4 -10 19
0 12 -20 -6 -21 -15 0 -15 -2 2 -8 11 -5 23 -4 26 1 3 5 10 3 16 -4 15 -20 14
-65 -2 -78 -11 -9 -15 -9 -15 -1 0 6 -5 11 -11 11 -5 0 -7 -4 -4 -10 11 -17
-5 -32 -21 -19 -11 9 -14 8 -14 -5 0 -10 -5 -14 -10 -11 -6 4 -7 11 -3 18 3 6
-11 -3 -33 -20 -21 -17 -49 -34 -62 -38 -13 -4 -21 -9 -18 -12 7 -7 -20 -33
-35 -33 -7 0 -8 -4 -2 -12 10 -14 16 -61 17 -148 1 -30 5 -58 9 -61 5 -4 10
-34 10 -69 2 -55 -1 -64 -23 -82 -17 -14 -35 -19 -61 -16 -30 3 -35 1 -27 -10
7 -8 22 -11 38 -7 29 6 45 -6 52 -40 5 -19 5 -19 14 2 l9 23 35 -30 c19 -17
41 -28 48 -25 6 2 12 0 12 -5 0 -6 -8 -10 -17 -10 -14 0 -15 -2 -5 -9 10 -6 6
-10 -15 -15 -15 -4 -39 -15 -53 -24 -30 -19 -70 -27 -70 -13 0 6 -24 -1 -52
-14 -29 -14 -58 -25 -65 -25 -6 0 -15 -5 -19 -11 -5 -8 2 -10 22 -6 16 3 54
11 84 17 58 12 198 15 208 6 3 -3 -4 -6 -16 -6 -12 0 -22 -4 -22 -10 0 -5 -6
-10 -12 -10 -7 0 -14 -11 -14 -25 -1 -14 2 -23 6 -20 5 3 12 0 15 -6 4 -6 18
-8 32 -4 18 4 23 2 17 -6 -5 -9 -1 -10 15 -6 14 3 24 0 28 -9 3 -8 9 -11 14
-8 5 3 9 -2 9 -10 0 -28 19 -17 45 27 14 24 25 58 25 75 0 17 5 34 11 37 5 4
8 12 6 18 -2 7 -1 19 4 28 5 11 -1 26 -21 50 -26 32 -60 87 -111 177 -11 18
-19 44 -19 58 0 14 -9 42 -20 64 -23 45 -25 66 -7 74 9 5 9 7 -2 12 -11 5 -11
8 0 15 7 4 20 4 28 0 9 -5 33 -11 54 -15 21 -4 35 -11 32 -16 -3 -6 1 -7 9 -4
9 4 16 1 16 -6 0 -8 10 -9 30 -5 20 4 30 3 30 -5 0 -6 5 -8 10 -5 6 3 10 -1
10 -10 0 -8 7 -18 15 -21 8 -4 15 -14 15 -23 0 -9 5 -22 11 -28 18 -18 1 -71
-23 -75 -12 -2 -23 -10 -25 -18 -4 -13 -3 -13 7 0 10 12 11 12 5 -5 -4 -11 -8
-26 -8 -32 0 -7 -6 -13 -13 -13 -9 0 -10 -10 -3 -42 6 -23 8 -47 5 -55 -3 -8
2 -13 13 -13 13 0 23 -14 35 -53 16 -54 14 -90 -9 -142 -7 -16 -15 -38 -19
-47 -7 -22 -20 -23 -36 -3 -11 13 -16 11 -35 -15 -12 -16 -25 -27 -29 -23 -4
4 -4 0 0 -10 4 -11 1 -17 -9 -17 -8 0 -18 -11 -21 -25 -4 -16 -11 -23 -18 -19
-6 4 -8 3 -5 -3 4 -6 -3 -21 -14 -34 l-21 -24 7 25 c8 24 7 24 -18 7 -15 -9
-52 -24 -84 -32 -61 -16 -92 -35 -57 -35 12 0 24 -3 28 -7 3 -4 17 -8 29 -10
41 -7 49 -24 32 -72 -32 -91 -15 -117 67 -106 44 6 51 5 41 -6 -11 -13 -42
-24 -140 -46 -33 -8 -49 -7 -70 5 -16 8 -57 24 -93 37 -36 12 -86 32 -112 45
-43 20 -48 26 -48 55 0 17 9 67 20 109 l20 78 -46 64 c-26 36 -58 95 -73 132
-14 37 -41 81 -59 99 -19 19 -32 41 -32 57 0 14 -14 48 -30 74 -58 95 -102
203 -97 237 3 21 -1 39 -14 56 -11 14 -19 40 -19 64 0 22 -5 56 -10 75 -10 35
-14 161 -6 212 3 21 1 25 -12 20 -11 -4 -6 8 13 30 17 19 33 35 36 34 3 0 19
13 35 29 16 17 52 48 79 70 28 21 68 55 90 76 22 20 60 47 85 60 25 12 61 31
80 43 19 11 41 22 50 24 8 1 35 7 60 12 40 8 180 6 220 -3z"/>
<path d="M940 1762 c0 -4 -27 -7 -60 -5 -57 2 -60 1 -50 -17 6 -11 18 -20 28
-20 14 0 14 -2 3 -9 -19 -12 17 -24 94 -30 18 -2 18 -3 -5 -16 -14 -8 -32 -14
-42 -15 -16 0 -68 -54 -68 -71 0 -17 17 -9 49 22 22 21 36 27 44 21 7 -5 26
-8 42 -7 28 3 28 2 8 -7 -25 -12 -32 -34 -8 -24 18 7 20 -5 3 -22 -16 -16 5
-16 35 0 28 15 46 38 47 61 0 9 7 17 15 17 10 0 15 10 15 28 0 15 4 42 9 60
10 34 2 42 -19 17 -10 -12 -17 -12 -48 5 -37 20 -92 27 -92 12z"/>
</g>
</svg>
